<?xml version="1.0" encoding="utf-8"?>
<!-- Generator: Adobe Illustrator 24.1.2, SVG Export Plug-In . SVG Version: 6.00 Build 0)  -->
<svg version="1.1" id="Calque_1" xmlns="http://www.w3.org/2000/svg" xmlns:xlink="http://www.w3.org/1999/xlink" x="0px" y="0px"
	 viewBox="0 0 200 200" style="enable-background:new 0 0 200 200;" xml:space="preserve">
<style type="text/css">
	.st0{fill:#FF679D;}
</style>
<path class="st0" d="M112.1,16.9c13.5-1.4,28.1,10.9,38.9,23.5c10.9,12.5,18,25.5,22.5,39.3s6.3,28.5,0.8,39.3
	c-5.6,10.8-18.5,17.8-30.3,23.1c-11.8,5.4-22.3,9.2-36.6,14.3c-14.3,5.1-32.3,11.5-45.1,6.5c-12.9-5-20.7-21.4-25.2-38.2
	c-4.5-16.7-5.6-33.8,1-46.6c6.6-12.9,21-21.4,34.5-33.1C86,33.3,98.6,18.3,112.1,16.9z"/>
</svg>
