<?xml version="1.0" encoding="utf-8"?>
<!-- Generator: Adobe Illustrator 24.1.2, SVG Export Plug-In . SVG Version: 6.00 Build 0)  -->
<svg version="1.1" id="Calque_1" xmlns="http://www.w3.org/2000/svg" xmlns:xlink="http://www.w3.org/1999/xlink" x="0px" y="0px"
	 viewBox="0 0 200 200" style="enable-background:new 0 0 200 200;" xml:space="preserve">
<style type="text/css">
	.st0{fill:#1796A4;}
</style>
<path class="st0" d="M138.5,45C152,56.7,166.4,65.2,173,78.1c6.6,12.8,5.5,29.9,1,46.6c-4.5,16.8-12.3,33.2-25.2,38.2
	c-12.8,5-30.8-1.4-45.1-6.5c-14.3-5.1-24.8-8.9-36.6-14.3c-11.8-5.3-24.7-12.3-30.3-23.1c-5.5-10.8-3.7-25.5,0.8-39.3
	s11.6-26.8,22.5-39.3C70.9,27.8,85.5,15.5,99,16.9S125.1,33.3,138.5,45z"/>
</svg>
