<svg xmlns="http://www.w3.org/2000/svg" viewBox="0 0 176 149.05"><defs><style>.cls-1{fill:#5faee1;}</style></defs><g id="Calque_2" data-name="Calque 2"><g id="Calque_1-2" data-name="Calque 1"><path class="cls-1" d="M88,57.48C83.56,26.37,62.52,0,62.52,0,17.78,42.67,0,128.89,0,128.89s8.59,7.41,24,11c0,0-1.48-69.92,37.63-123,0,0,11.56,9.48,26.37,53"/><path class="cls-1" d="M88,57.48C92.44,26.37,113.48,0,113.48,0,158.22,42.67,176,128.89,176,128.89s-8.59,7.41-24,11c0,0,1.48-69.92-37.63-123,0,0-11.56,9.48-26.37,53"/><path class="cls-1" d="M61.93,23.21C27.52,74.58,29.78,141.63,29.78,141.63c31.19,8.31,64.59,8.85,99.11,5.49L127.11,131C99.7,141,73.49,148.49,36.74,137.48,36.26,103.24,42.22,76.89,69,35.26A26,26,0,0,0,61.93,23.21Z"/></g></g></svg>