<svg xmlns="http://www.w3.org/2000/svg" viewBox="0 0 171.04 196.94"><defs><style>.cls-1{fill:#60aee1;}.cls-2{fill:#ffe360;opacity:0.74;}</style></defs><g id="Calque_2" data-name="Calque 2"><g id="Calque_1-2" data-name="Calque 1"><path class="cls-1" d="M31.4,1.08h0L44.11,159.24l102.28,2.4c18.32-.3,24,18.55,24.65,35.3h0L4.19,193.81.64,35.15C.53,16.13,10.6,1.08,31.4,1.08Z"/><path class="cls-2" d="M4.19,193.81,0,30.28C2.81,10.69,13.85,1.08,31.4,1.08h0L85.81,75.7,127.21,0h0c22.94,0,41.6,16.88,41.85,37.85l1.91,159h0c-17.76,0-32.28-12.95-32.72-29.19L135.49,66,89.36,133l-52-70,6.78,96.26c.59,20.93-12.79,34-35.68,34.64Z"/></g></g></svg>