<?xml version="1.0" encoding="utf-8"?>
<!-- Generator: Adobe Illustrator 24.1.2, SVG Export Plug-In . SVG Version: 6.00 Build 0)  -->
<svg version="1.1" id="Calque_1" xmlns="http://www.w3.org/2000/svg" xmlns:xlink="http://www.w3.org/1999/xlink" x="0px" y="0px"
	 viewBox="0 0 595.28 841.89" style="enable-background:new 0 0 595.28 841.89;" xml:space="preserve">
<style type="text/css">
	.st0{fill:#5FAEE1;}
</style>
<g>
	<g>
		<path class="st0" d="M260.63,501.38c-0.43,0-0.64-0.21-0.64-0.64c0-10.13,0.19-20.32,0.56-30.56c0.37-10.24,0.88-20.11,1.52-29.6
			c0.64-9.49,1.28-18.21,1.92-26.16c0.64-7.94,1.28-14.64,1.92-20.08c0-0.21,0.05-0.37,0.16-0.48c0.1-0.1,0.26-0.16,0.48-0.16h3.52
			c0.42,0,0.72,0.11,0.88,0.32c0.16,0.21,0.29,0.43,0.4,0.64l31.2,55.04c0.32,0.64,0.67,0.96,1.04,0.96c0.37,0,0.72-0.26,1.04-0.8
			l30.72-54.72c0.21-0.53,0.48-0.9,0.8-1.12c0.32-0.21,0.69-0.32,1.12-0.32h2.72c0.75,0,1.17,0.48,1.28,1.44
			c0.53,5.12,1.15,11.5,1.84,19.12c0.69,7.63,1.33,16.14,1.92,25.52c0.58,9.39,1.06,19.2,1.44,29.44
			c0.37,10.24,0.56,20.59,0.56,31.04c0,0.43-0.05,0.72-0.16,0.88c-0.11,0.16-0.32,0.24-0.64,0.24h-3.52c-0.64,0-0.96-0.37-0.96-1.12
			c0-4.91-0.08-10.61-0.24-17.12c-0.16-6.5-0.4-13.33-0.72-20.48c-0.32-7.14-0.67-14.18-1.04-21.12c-0.38-6.93-0.78-13.33-1.2-19.2
			c-0.43-5.87-0.85-10.77-1.28-14.72c-0.11-0.85-0.46-1.28-1.04-1.28c-0.59,0-1.04,0.27-1.36,0.8l-28.32,49.44
			c-0.32,0.64-0.96,0.96-1.92,0.96h-2.56c-0.64,0-1.23-0.37-1.76-1.12l-28.16-49.12c-0.32-0.53-0.77-0.8-1.36-0.8
			c-0.59,0-0.94,0.43-1.04,1.28c-0.43,5.12-0.91,11.44-1.44,18.96c-0.54,7.52-1.04,15.6-1.52,24.24
			c-0.48,8.64-0.85,17.28-1.12,25.92c-0.27,8.64-0.4,16.59-0.4,23.84c0,0.43-0.21,0.64-0.64,0.64H260.63z"/>
	</g>
</g>
<g>
	<g>
		<path class="st0" d="M260.29,500.15c-0.23,1.04-0.47,2.07-0.76,3.09c-0.12,0.42-0.25,0.84-0.4,1.25c-0.12,0.34-0.3,0.8-0.32,0.85
			c-0.24,0.54-0.54,1.06-0.86,1.56c-0.08,0.12-0.16,0.24-0.25,0.35c0.3-0.39,0.07-0.1,0-0.02c-0.21,0.22-0.41,0.44-0.63,0.65
			c-0.08,0.07-0.65,0.55-0.44,0.39c0.22-0.17-0.33,0.23-0.42,0.29c-0.57,0.39-1.16,0.75-1.75,1.11c-1.84,1.12-3.71,2.05-5.81,2.58
			c-3.89,0.98-7.86,0.26-11.65-0.79c-4.24-1.17-8.24-2.53-11.94-4.95c-7.13-4.67-12.6-11.78-17.06-18.93
			c-4.71-7.55-8.31-15.73-10.71-24.3c-4.73-16.83-4.73-34.77,0.3-51.52c4.82-16.06,14.01-30.74,26.33-42.1
			c5.83-5.37,12.39-9.75,19.22-13.75c7.23-4.23,14.6-7.79,22.42-10.65c15.27-5.58,31.36-8.91,47.68-7.43
			c9.76,0.89,19.31,3.56,28.48,6.93c8.13,2.98,16.28,6.33,23.65,10.91c6.08,3.78,11.52,8.51,15.93,14.16
			c4.86,6.22,8.83,13.61,10.99,21.21c2.68,9.47,3.46,19.64,3.7,29.44c0.25,10.01-0.47,20.05-2.61,29.84
			c-3.68,16.8-11.67,32.82-24.38,44.61c-2.95,2.73-6.12,5.18-9.51,7.33c-2.71,1.72-0.2,6.05,2.52,4.32
			c15.19-9.66,26.05-24.79,32.27-41.51c7.21-19.39,7.96-40.73,5.47-61.09c-0.63-5.18-1.44-10.37-2.97-15.38
			c-1.37-4.48-3.37-8.77-5.64-12.86c-3.72-6.69-8.5-12.82-14.3-17.83c-6.08-5.25-13.06-9.3-20.39-12.53
			c-9.52-4.2-19.31-7.96-29.46-10.32c-17.21-4-35.07-3.03-51.99,1.84c-16.73,4.81-32.9,12.41-46.89,22.84
			c-14.29,10.65-25.32,25.21-32.11,41.65c-7.04,17.04-8.88,35.82-5.65,53.95c1.64,9.17,4.61,18.1,8.72,26.46
			c4.07,8.27,9.34,16.26,15.88,22.8c3.19,3.19,6.82,6.08,10.85,8.13c4.14,2.11,8.84,3.51,13.39,4.4c4.47,0.87,9.06,0.83,13.34-0.88
			c2.95-1.18,6.39-2.92,8.59-5.32c2.36-2.58,3.28-6.09,4.01-9.42C265.8,498.34,260.98,497,260.29,500.15L260.29,500.15z"/>
	</g>
</g>
<g>
	<g>
		<path class="st0" d="M301.35,533.95c-0.42,0-0.63-0.21-0.63-0.63v-69.41c0-0.42,0.21-0.63,0.63-0.63h4.51
			c0.28,0,0.47,0.05,0.58,0.16c0.11,0.11,0.16,0.3,0.16,0.58v64.16c0,0.28,0.03,0.51,0.1,0.68c0.07,0.18,0.32,0.26,0.74,0.26h26.35
			c0.35,0,0.58,0.04,0.68,0.11c0.11,0.07,0.16,0.28,0.16,0.63v3.25c0,0.35-0.05,0.58-0.16,0.68c-0.1,0.1-0.33,0.16-0.68,0.16H301.35
			z"/>
	</g>
</g>
</svg>
